# xmcd
#
# Track frame offsets: 
#        150
#        12892
#        25790
#        42075
#        52060
#        63525
#        80972
#        94430
#        109235
#        125542
#        147510
#
# Disc length: 2198 seconds
#
# Revision: 0
# Processed by: cddbd v1.5.1PL0 Copyright (c) Steve Scherf et al.
# Submitted via: ExactAudioCopy v0.95a5
#
DISCID=a008940b
DTITLE=Old Crow Medicine Show - O.C.M.S.
DYEAR=1900
DGENRE=Bluegrass
TTITLE0=Tell It To Me
TTITLE1=Big Time in this Jungle
TTITLE2=Poor Man
TTITLE3=Tear It Down
TTITLE4=Hard to Love
TTITLE5=CC Rider
TTITLE6=Trail of Troubles
TTITLE7=Hart to Tell
TTITLE8=Take Em Away
TTITLE9=We're All in this Together
TTITLE10=Wagon Wheel
EXTD=
EXTT0=
EXTT1=
EXTT2=
EXTT3=
EXTT4=
EXTT5=
EXTT6=
EXTT7=
EXTT8=
EXTT9=
EXTT10=
PLAYORDER=
